ply
format ascii 1.0
comment generated by tinyply
element vertex 12
property float x
property float y
property float z
property float nx
property float ny
property float nz
property uchar red
property uchar green
property uchar blue
property uchar alpha
element face 4
property list ushort uint vertex_indices
property list ushort float texcoord
end_header
0 1 2 0.5 1.5 2.5 10 20 30 244 
3 4 5 3.5 4.5 5.5 15 25 35 245 
6 7 8 6.5 7.5 8.5 20 30 40 246 
9 10 11 9.5 10.5 11.5 25 35 45 247 
12 13 14 12.5 13.5 14.5 30 40 50 248 
15 16 17 15.5 16.5 17.5 35 45 55 249 
18 19 20 18.5 19.5 20.5 40 50 60 250 
21 22 23 21.5 22.5 23.5 45 55 65 251 
24 25 26 24.5 25.5 26.5 50 60 70 252 
27 28 29 27.5 28.5 29.5 55 65 75 253 
30 31 32 30.5 31.5 32.5 60 70 80 254 
33 34 35 33.5 34.5 35.5 65 75 85 255 
3 0 1 2 6 0.25 0.55 0.26 0.56 0.27 0.57 
3 3 4 5 6 0.28 0.58 0.29 0.59 0.3 0.6 
3 6 7 8 6 0.31 0.61 0.32 0.62 0.33 0.63 
3 9 10 11 6 0.34 0.64 0.35 0.65 0.36 0.66 
